<svg width="98" height="78" viewBox="0 0 98 78" fill="none" xmlns="http://www.w3.org/2000/svg">
<g opacity="0.5" clip-path="url(#clip0_4935_13234)">
<path d="M37.1679 6.02243C19.1928 5.82717 16.2617 15.0171 16.2617 29.9535C16.2617 44.8898 25.8404 56.9969 37.6566 56.9969C49.4729 56.9969 59.0515 44.8888 59.0515 29.9535C59.0515 15.0182 55.9249 6.22536 37.1679 6.02243Z" fill="#232B2B"/>
<path d="M58.624 36.8753C58.6585 36.9428 58.7259 37.1201 58.751 37.5022C58.8116 38.4258 58.6112 40.0722 57.9297 42.8596C57.3089 45.3983 56.849 47.6136 56.248 49.2356C55.9497 50.0408 55.6486 50.6032 55.3428 50.9524C55.0608 51.2743 54.8162 51.3733 54.5576 51.3733C53.963 51.3733 53.1263 50.8174 52.3828 49.219C51.6758 47.6992 51.2129 45.5323 51.2129 43.0872C51.2129 40.6322 51.7287 39.4544 52.2979 38.8723C52.8526 38.305 53.6502 38.1067 54.7529 38.1067C55.2098 38.1067 55.659 37.9832 56.041 37.8479C56.4285 37.7107 56.8251 37.5316 57.1699 37.3772C57.5326 37.2149 57.8415 37.0777 58.1201 36.9837C58.3844 36.8945 58.5422 36.8738 58.624 36.8753Z" fill="white" stroke="black" stroke-width="1.90813"/>
<path d="M16.375 36.8753C16.4565 36.8736 16.6145 36.8941 16.8799 36.9837C17.1585 37.0777 17.4674 37.2149 17.8301 37.3772C18.175 37.5316 18.5715 37.7107 18.959 37.8479C19.341 37.9832 19.7902 38.1067 20.2471 38.1067C21.3496 38.1067 22.1479 38.3049 22.7031 38.8723C23.2726 39.4546 23.7891 40.6327 23.7891 43.0872C23.789 45.5319 23.3255 47.6991 22.6182 49.219C21.8743 50.8173 21.0371 51.3733 20.4424 51.3733C20.1839 51.3732 19.9392 51.2743 19.6572 50.9524C19.3513 50.6031 19.0503 50.04 18.752 49.2346C18.1511 47.6126 17.692 45.3978 17.0713 42.8596C16.3897 40.0721 16.1884 38.4258 16.249 37.5022C16.2741 37.1208 16.3405 36.9432 16.375 36.8753Z" fill="white" stroke="black" stroke-width="1.90813"/>
<path d="M37.3639 22.3655C16.067 21.976 19.1921 30.73 19.1921 45.1286C19.1921 59.5272 32.478 71.3941 37.4604 71.1973C43.0284 70.98 55.7291 59.5251 55.7291 45.1286C55.7291 30.732 58.075 22.7463 37.3639 22.3655Z" fill="white"/>
<path d="M37.3477 23.3199C47.6775 23.5098 51.7351 25.6058 53.4678 28.9312C54.3686 30.6601 54.717 32.8456 54.8193 35.5865C54.9225 38.3494 54.7764 41.4599 54.7764 45.1284C54.7764 52.0482 51.7202 58.3044 47.9482 62.8745C46.0652 65.1561 44.0221 66.9942 42.1318 68.2671C40.2131 69.5592 38.554 70.2 37.4248 70.2437C36.4962 70.28 34.9465 69.7236 33.0381 68.439C31.1758 67.1854 29.1137 65.3347 27.1924 63.0249C23.3418 58.3956 20.1475 52.0378 20.1475 45.1284C20.1475 43.3136 20.0985 41.5887 20.0547 39.9751C20.0107 38.3556 19.9717 36.8534 19.9912 35.4566C20.0305 32.6446 20.3064 30.3871 21.1533 28.6128C21.974 26.8938 23.3731 25.545 25.8691 24.6294C28.4084 23.698 32.069 23.2233 37.3477 23.3199Z" fill="white" stroke="#232B2B" stroke-width="1.90813"/>
<mask id="mask0_4935_13234" style="mask-type:luminance" maskUnits="userSpaceOnUse" x="19" y="22" width="37" height="50">
<path d="M37.3564 22.8419C47.6985 23.0321 52.0229 25.126 53.8906 28.7101C54.8417 30.5354 55.1928 32.8084 55.2959 35.5685C55.3994 38.3396 55.2529 41.4941 55.2529 45.1281C55.2529 52.1876 52.137 58.5476 48.3154 63.1779C46.4061 65.4911 44.3303 67.3613 42.3984 68.6623C40.4523 69.9728 38.7039 70.6711 37.4434 70.7199C36.3563 70.7624 34.6988 70.1315 32.7715 68.8341C30.8674 67.5523 28.7728 65.6695 26.8262 63.3293C22.9288 58.6436 19.6699 52.1819 19.6699 45.1281C19.6699 43.3209 19.621 41.6025 19.5771 39.9875C19.5332 38.3696 19.495 36.8575 19.5146 35.4494C19.5542 32.6239 19.8291 30.2794 20.7227 28.4074C21.6032 26.5628 23.106 25.1341 25.7051 24.1808C28.3257 23.2197 32.055 22.745 37.3564 22.8419Z" fill="white" stroke="white" stroke-width="0.954063"/>
</mask>
<g mask="url(#mask0_4935_13234)">
<path opacity="0.1" d="M36.9458 21.9352H36.9422C36.8823 21.9365 36.8247 21.9586 36.7794 21.9977C36.7341 22.0368 36.704 22.0905 36.6943 22.1494L32.2284 50.5372C32.223 50.5729 32.2254 50.6094 32.2353 50.6442C32.2452 50.6789 32.2623 50.7112 32.2857 50.7389C32.309 50.7666 32.338 50.789 32.3706 50.8047C32.4033 50.8204 32.439 50.8291 32.4753 50.8301L42.2444 51.0243H42.2464C42.2837 51.024 42.3204 51.0156 42.354 50.9997C42.3877 50.9838 42.4175 50.9608 42.4413 50.9323C42.4651 50.9038 42.4825 50.8705 42.4921 50.8346C42.5017 50.7988 42.5033 50.7613 42.4969 50.7248L37.1963 22.1428C37.1851 22.0846 37.1541 22.0322 37.1084 21.9943C37.0627 21.9565 37.0052 21.9356 36.9458 21.9352ZM32.775 50.3291L36.9663 23.6951L41.9384 50.5111L32.775 50.3291Z" fill="#7EC040"/>
<path opacity="0.1" d="M49.0382 38.1123L48.97 38.0643L37.1511 22.0392C37.1273 22.0053 37.095 21.9781 37.0576 21.9602C37.0201 21.9423 36.9786 21.9343 36.9371 21.937C36.8958 21.9385 36.8555 21.9501 36.8197 21.9706C36.7839 21.9912 36.7537 22.0202 36.7318 22.055L26.9031 37.6109C26.8777 37.6514 26.8643 37.6983 26.8643 37.7461C26.8643 37.7939 26.8777 37.8407 26.9031 37.8813C26.9285 37.9221 26.9651 37.9547 27.0086 37.9753C27.0522 37.9959 27.1007 38.0035 27.1485 37.9973L27.2147 37.9896L48.8842 38.5729H48.8914C48.9447 38.5714 48.9962 38.5535 49.0387 38.5216C49.0813 38.4897 49.1128 38.4454 49.129 38.3948C49.1451 38.3442 49.145 38.2899 49.1288 38.2394C49.1125 38.1889 49.0809 38.1446 49.0382 38.1128V38.1123ZM27.5812 37.4923L36.9622 22.6393L48.3283 38.0505L27.5812 37.4923Z" fill="#7EC040"/>
<path opacity="0.1" d="M21.8024 26.3412C21.7771 26.2939 21.7376 26.2558 21.6893 26.2321C21.6411 26.2084 21.5867 26.2004 21.5336 26.2092C21.4806 26.218 21.4317 26.2432 21.3938 26.2812C21.3559 26.3192 21.3309 26.368 21.3224 26.4209L19.2655 41.9824C19.2599 42.0289 19.2672 42.0761 19.2866 42.1187C19.3061 42.1614 19.3369 42.1979 19.3758 42.2243C19.4147 42.2507 19.4602 42.2659 19.5072 42.2683C19.5542 42.2707 19.6009 42.2602 19.6423 42.2379L27.3273 37.9576C27.3839 37.9253 27.426 37.8727 27.445 37.8106C27.4641 37.7485 27.4587 37.6816 27.43 37.6233L21.8024 26.3412ZM19.8369 41.5479L21.7182 27.3113L26.8674 37.632L19.8369 41.5479Z" fill="#7EC040"/>
<path opacity="0.1" d="M52.3079 25.8797C52.2913 25.827 52.2581 25.7811 52.2133 25.7485C52.1685 25.7159 52.1144 25.6985 52.059 25.6988C52.0034 25.7003 51.9499 25.7197 51.9064 25.7541C51.8629 25.7884 51.8318 25.8359 51.8177 25.8894L48.6448 38.2562C48.6363 38.2888 48.6345 38.3228 48.6394 38.3561C48.6443 38.3894 48.6558 38.4214 48.6733 38.4502C48.6908 38.479 48.714 38.5041 48.7413 38.5239C48.7687 38.5437 48.7998 38.5578 48.8327 38.5654L56.2569 40.3166C56.3003 40.3263 56.3454 40.3245 56.3879 40.3116C56.4304 40.2986 56.4688 40.2749 56.4993 40.2428C56.5298 40.2106 56.5515 40.1711 56.5621 40.1282C56.5727 40.0852 56.5719 40.0403 56.5598 39.9977L52.3079 25.8797ZM49.2018 38.132L52.0846 26.9L55.9453 39.7227L49.2018 38.132Z" fill="#7EC040"/>
<path opacity="0.1" d="M42.2524 50.5171L32.4833 50.3224C32.4433 50.3239 32.4039 50.3338 32.368 50.3514C32.332 50.369 32.3001 50.3939 32.2744 50.4246C32.2499 50.457 32.2336 50.4949 32.227 50.535C32.2204 50.575 32.2236 50.6161 32.2364 50.6546L37.1207 66.0249C37.1373 66.076 37.1697 66.1206 37.2132 66.1523C37.2567 66.1841 37.3091 66.2014 37.363 66.2018C37.4169 66.2016 37.4693 66.1845 37.5129 66.1529C37.5565 66.1213 37.589 66.0769 37.6058 66.0259L42.4906 50.8504C42.5023 50.8128 42.505 50.773 42.4987 50.7342C42.4923 50.6953 42.4771 50.6584 42.4541 50.6264C42.4311 50.5944 42.4009 50.5681 42.3661 50.5496C42.3312 50.5311 42.2925 50.5209 42.253 50.5197L42.2524 50.5171ZM37.3646 65.111L32.8283 50.8361L41.9008 51.017L37.3646 65.111Z" fill="#7EC040"/>
<path opacity="0.1" d="M19.7249 41.8045C19.6824 41.7775 19.6329 41.7635 19.5824 41.7643C19.532 41.7652 19.4829 41.7808 19.4413 41.8093C19.3997 41.8378 19.3675 41.8778 19.3487 41.9244C19.3298 41.971 19.3252 42.0221 19.3353 42.0714C20.9302 49.1283 23.3126 59.8144 23.3367 60.3281C23.3386 60.3837 23.3563 60.4377 23.3878 60.4837C23.4192 60.5298 23.4631 60.566 23.5143 60.5883C23.5434 60.601 23.5745 60.6081 23.6062 60.6092C23.8526 60.6092 24.4573 60.1022 28.3663 55.6802C30.5166 53.2471 32.651 50.766 32.6726 50.741C32.6957 50.7137 32.7128 50.6818 32.7228 50.6475C32.7328 50.6132 32.7355 50.5772 32.7307 50.5418C32.7258 50.5064 32.7136 50.4724 32.6947 50.442C32.6759 50.4116 32.6509 50.3854 32.6212 50.3653L19.7249 41.8045ZM23.7802 59.9131C23.3341 57.5045 20.6874 45.7435 19.9713 42.5789L32.0992 50.6295C29.2687 53.9152 24.9393 58.8412 23.7813 59.9131H23.7802Z" fill="#7EC040"/>
<path opacity="0.1" d="M56.4536 39.8569C56.4095 39.8289 56.3578 39.8149 56.3055 39.8169C56.2532 39.8189 56.2028 39.8368 56.161 39.8682L42.0825 50.5911C42.0525 50.6139 42.0279 50.6431 42.0106 50.6765C41.9933 50.71 41.9837 50.7469 41.9825 50.7845C41.9814 50.8221 41.9886 50.8595 42.0038 50.8939C42.019 50.9284 42.0416 50.959 42.0702 50.9837L51.6458 59.2643C51.6791 59.2923 51.719 59.3115 51.7618 59.3199C51.8046 59.3283 51.8489 59.3257 51.8904 59.3123C51.9319 59.299 51.9693 59.2753 51.9991 59.2436C52.0289 59.2118 52.05 59.173 52.0606 59.1309L56.5629 40.1278C56.5747 40.077 56.5705 40.0237 56.551 39.9753C56.5314 39.9269 56.4974 39.8856 56.4536 39.8569ZM51.6617 58.6064L42.64 50.8048L55.9038 40.7019L51.6617 58.6064Z" fill="#7EC040"/>
<path opacity="0.1" d="M37.4538 65.5945H37.4497C37.3831 65.5952 37.3194 65.6216 37.272 65.6681C37.2246 65.7146 37.1972 65.7777 37.1956 65.844L37.0693 74.5008C37.0693 74.5676 37.0956 74.6318 37.1425 74.6796C37.1894 74.7274 37.2533 74.7549 37.3204 74.7564H37.3239C37.391 74.7564 37.4553 74.7303 37.5033 74.6837C37.5512 74.6371 37.579 74.5737 37.5806 74.507L37.7064 65.8501C37.7064 65.783 37.6799 65.7186 37.6327 65.6708C37.5854 65.623 37.5212 65.5956 37.4538 65.5945Z" fill="#7EC040"/>
</g>
<path d="M61.3418 7.37473H67.4078V14.1935H68.1716V6.61414H61.3418V7.37473Z" fill="#232B2B"/>
<path d="M61.5488 0.760561H74.2367V14.9721H75.0005V-3.05176e-05H61.5488V0.760561Z" fill="#232B2B"/>
<path d="M6.82812 14.1935H7.59195V7.37473H13.6579V6.61414H6.82812V14.1935Z" fill="#232B2B"/>
<path d="M0 14.972H0.763829V0.7605H13.4512V-9.15527e-05H0V14.972Z" fill="#232B2B"/>
<path d="M67.4078 70.6251H61.3418V71.3852H68.1716V63.8064H67.4078V70.6251Z" fill="#232B2B"/>
<path d="M74.2367 77.2391H61.5488V77.9997H75.0005V63.0276H74.2367V77.2391Z" fill="#232B2B"/>
<path d="M7.59195 63.8064H6.82812V71.3852H13.6579V70.6251H7.59195V63.8064Z" fill="#232B2B"/>
<path d="M0.763829 63.0276H0V77.9997H13.4512V77.2391H0.763829V63.0276Z" fill="#232B2B"/>
</g>
<path d="M95.7503 39.0413L85.5022 21.244C85.2461 20.808 84.8806 20.4465 84.4417 20.1953C84.0028 19.9441 83.5059 19.8119 83.0003 19.8119C82.4946 19.8119 81.9977 19.9441 81.5589 20.1953C81.12 20.4465 80.7544 20.808 80.4983 21.244L70.2503 39.0413C70.0039 39.463 69.874 39.9427 69.874 40.4311C69.874 40.9196 70.0039 41.3992 70.2503 41.821C70.5031 42.2596 70.8681 42.6231 71.3077 42.8742C71.7474 43.1252 72.246 43.2548 72.7522 43.2495H93.2483C93.7542 43.2543 94.2523 43.1246 94.6915 42.8736C95.1307 42.6226 95.4953 42.2593 95.7479 41.821C95.9947 41.3995 96.125 40.9199 96.1254 40.4315C96.1258 39.943 95.9963 39.4632 95.7503 39.0413ZM82.0628 29.187C82.0628 28.9384 82.1616 28.6999 82.3374 28.5241C82.5132 28.3483 82.7516 28.2495 83.0003 28.2495C83.2489 28.2495 83.4874 28.3483 83.6632 28.5241C83.839 28.6999 83.9378 28.9384 83.9378 29.187V33.8745C83.9378 34.1231 83.839 34.3616 83.6632 34.5374C83.4874 34.7132 83.2489 34.812 83.0003 34.812C82.7516 34.812 82.5132 34.7132 82.3374 34.5374C82.1616 34.3616 82.0628 34.1231 82.0628 33.8745V29.187ZM83.0003 39.4995C82.7222 39.4995 82.4503 39.417 82.219 39.2625C81.9878 39.108 81.8075 38.8884 81.7011 38.6314C81.5946 38.3744 81.5668 38.0917 81.6211 37.8189C81.6753 37.5461 81.8092 37.2955 82.0059 37.0989C82.2026 36.9022 82.4531 36.7683 82.7259 36.714C82.9987 36.6598 83.2815 36.6876 83.5384 36.794C83.7954 36.9005 84.015 37.0807 84.1695 37.312C84.3241 37.5432 84.4065 37.8151 84.4065 38.0932C84.4065 38.4662 84.2584 38.8239 83.9946 39.0876C83.7309 39.3513 83.3732 39.4995 83.0003 39.4995Z" fill="#D32F2F"/>
<defs>
<clipPath id="clip0_4935_13234">
<rect width="75" height="78" fill="white"/>
</clipPath>
</defs>
</svg>
