<svg width="98" height="78" viewBox="0 0 98 78" fill="none" xmlns="http://www.w3.org/2000/svg">
<g opacity="0.5" clip-path="url(#clip0_4935_13313)">
<path d="M53.125 24.9373H47.7109L45.0488 20.9451C44.9062 20.7313 44.7131 20.556 44.4865 20.4348C44.2599 20.3135 44.007 20.2499 43.75 20.2498H31.25C30.993 20.2499 30.7401 20.3135 30.5135 20.4348C30.2869 20.556 30.0938 20.7313 29.9512 20.9451L27.2871 24.9373H21.875C20.6318 24.9373 19.4395 25.4311 18.5604 26.3102C17.6814 27.1893 17.1875 28.3816 17.1875 29.6248V51.4998C17.1875 52.743 17.6814 53.9353 18.5604 54.8144C19.4395 55.6934 20.6318 56.1873 21.875 56.1873H53.125C54.3682 56.1873 55.5605 55.6934 56.4396 54.8144C57.3186 53.9353 57.8125 52.743 57.8125 51.4998V29.6248C57.8125 28.3816 57.3186 27.1893 56.4396 26.3102C55.5605 25.4311 54.3682 24.9373 53.125 24.9373ZM54.6875 51.4998C54.6875 51.9142 54.5229 52.3116 54.2299 52.6046C53.9368 52.8977 53.5394 53.0623 53.125 53.0623H21.875C21.4606 53.0623 21.0632 52.8977 20.7701 52.6046C20.4771 52.3116 20.3125 51.9142 20.3125 51.4998V29.6248C20.3125 29.2104 20.4771 28.813 20.7701 28.5199C21.0632 28.2269 21.4606 28.0623 21.875 28.0623H28.125C28.3823 28.0625 28.6357 27.9991 28.8626 27.8778C29.0895 27.7565 29.283 27.581 29.4258 27.367L32.0859 23.3748H42.9121L45.5742 27.367C45.717 27.581 45.9105 27.7565 46.1374 27.8778C46.3643 27.9991 46.6177 28.0625 46.875 28.0623H53.125C53.5394 28.0623 53.9368 28.2269 54.2299 28.5199C54.5229 28.813 54.6875 29.2104 54.6875 29.6248V51.4998ZM37.5 31.1873C35.8003 31.1873 34.1388 31.6913 32.7256 32.6356C31.3123 33.5799 30.2109 34.922 29.5604 36.4923C28.91 38.0627 28.7398 39.7906 29.0714 41.4576C29.403 43.1246 30.2214 44.6559 31.4233 45.8577C32.6252 47.0596 34.1564 47.8781 35.8234 48.2097C37.4905 48.5413 39.2184 48.3711 40.7887 47.7206C42.359 47.0702 43.7011 45.9687 44.6454 44.5555C45.5897 43.1422 46.0938 41.4807 46.0938 39.781C46.0912 37.5026 45.1849 35.3183 43.5738 33.7072C41.9628 32.0961 39.7784 31.1899 37.5 31.1873ZM37.5 45.2498C36.4184 45.2498 35.3611 44.929 34.4617 44.3281C33.5624 43.7272 32.8615 42.8731 32.4475 41.8738C32.0336 40.8746 31.9253 39.775 32.1363 38.7141C32.3473 37.6533 32.8682 36.6789 33.633 35.914C34.3978 35.1492 35.3723 34.6284 36.4331 34.4174C37.4939 34.2064 38.5935 34.3147 39.5928 34.7286C40.5921 35.1425 41.4462 35.8434 42.0471 36.7428C42.648 37.6421 42.9688 38.6994 42.9688 39.781C42.9688 41.2314 42.3926 42.6224 41.367 43.648C40.3414 44.6736 38.9504 45.2498 37.5 45.2498Z" fill="#65676E"/>
<path d="M61.3418 7.37473H67.4078V14.1935H68.1716V6.61414H61.3418V7.37473Z" fill="#232B2B"/>
<path d="M61.5488 0.760561H74.2367V14.9721H75.0005V-3.05176e-05H61.5488V0.760561Z" fill="#232B2B"/>
<path d="M6.82812 14.1935H7.59195V7.37473H13.6579V6.61414H6.82812V14.1935Z" fill="#232B2B"/>
<path d="M0 14.972H0.763829V0.7605H13.4512V-9.15527e-05H0V14.972Z" fill="#232B2B"/>
<path d="M67.4078 70.6251H61.3418V71.3852H68.1716V63.8064H67.4078V70.6251Z" fill="#232B2B"/>
<path d="M74.2367 77.2391H61.5488V77.9997H75.0005V63.0276H74.2367V77.2391Z" fill="#232B2B"/>
<path d="M7.59195 63.8064H6.82812V71.3852H13.6579V70.6251H7.59195V63.8064Z" fill="#232B2B"/>
<path d="M0.763829 63.0276H0V77.9997H13.4512V77.2391H0.763829V63.0276Z" fill="#232B2B"/>
</g>
<path d="M95.7503 39.0413L85.5022 21.244C85.2461 20.808 84.8806 20.4465 84.4417 20.1953C84.0028 19.9441 83.5059 19.8119 83.0003 19.8119C82.4946 19.8119 81.9977 19.9441 81.5589 20.1953C81.12 20.4465 80.7544 20.808 80.4983 21.244L70.2503 39.0413C70.0039 39.463 69.874 39.9427 69.874 40.4311C69.874 40.9196 70.0039 41.3992 70.2503 41.821C70.5031 42.2596 70.8681 42.6231 71.3077 42.8742C71.7474 43.1252 72.246 43.2548 72.7522 43.2495H93.2483C93.7542 43.2543 94.2523 43.1246 94.6915 42.8736C95.1307 42.6226 95.4953 42.2593 95.7479 41.821C95.9947 41.3995 96.125 40.9199 96.1254 40.4315C96.1258 39.943 95.9963 39.4632 95.7503 39.0413ZM82.0628 29.187C82.0628 28.9384 82.1616 28.6999 82.3374 28.5241C82.5132 28.3483 82.7516 28.2495 83.0003 28.2495C83.2489 28.2495 83.4874 28.3483 83.6632 28.5241C83.839 28.6999 83.9378 28.9384 83.9378 29.187V33.8745C83.9378 34.1231 83.839 34.3616 83.6632 34.5374C83.4874 34.7132 83.2489 34.812 83.0003 34.812C82.7516 34.812 82.5132 34.7132 82.3374 34.5374C82.1616 34.3616 82.0628 34.1231 82.0628 33.8745V29.187ZM83.0003 39.4995C82.7222 39.4995 82.4503 39.417 82.219 39.2625C81.9878 39.108 81.8075 38.8884 81.7011 38.6314C81.5946 38.3744 81.5668 38.0917 81.6211 37.8189C81.6753 37.5461 81.8092 37.2955 82.0059 37.0989C82.2026 36.9022 82.4531 36.7683 82.7259 36.714C82.9987 36.6598 83.2815 36.6876 83.5384 36.794C83.7954 36.9005 84.015 37.0807 84.1695 37.312C84.3241 37.5432 84.4065 37.8151 84.4065 38.0932C84.4065 38.4662 84.2584 38.8239 83.9946 39.0876C83.7309 39.3513 83.3732 39.4995 83.0003 39.4995Z" fill="#D32F2F"/>
<defs>
<clipPath id="clip0_4935_13313">
<rect width="75" height="78" fill="white"/>
</clipPath>
</defs>
</svg>
