<svg width="9" height="13" viewBox="0 0 9 13" fill="none" xmlns="http://www.w3.org/2000/svg">
<path d="M8.29594 6.61489L4.42688 4.69761C4.37333 4.67105 4.31437 4.65723 4.25459 4.65723C4.19482 4.65723 4.13585 4.67105 4.08231 4.69761L2.30379 5.57961L3.48803 6.16762C3.55308 6.19994 3.62473 6.21676 3.69736 6.21676C3.77 6.21676 3.84164 6.19994 3.90669 6.16762L4.04781 6.09745C4.11198 6.06524 4.18279 6.04847 4.25459 6.04847C4.32639 6.04847 4.3972 6.06524 4.46137 6.09745L7.01135 7.36322C7.08892 7.40175 7.1542 7.46117 7.19984 7.53479C7.24548 7.60841 7.26967 7.6933 7.26968 7.77992V9.88536C7.26989 9.97218 7.24581 10.0573 7.20015 10.1312C7.1545 10.205 7.0891 10.2646 7.01135 10.3032L4.46137 11.5678C4.39713 11.5998 4.32635 11.6164 4.25459 11.6164C4.18283 11.6164 4.11205 11.5998 4.04781 11.5678L1.4998 10.3032C1.42218 10.2647 1.35684 10.2053 1.31113 10.1317C1.26543 10.0581 1.24117 9.97319 1.24108 9.88654V7.68662C1.2411 7.59904 1.21668 7.51319 1.17055 7.43874C1.12443 7.36429 1.05844 7.3042 0.980005 7.26522L3.06238e-08 6.77875V10.7019C-2.8691e-05 10.7741 0.0201464 10.8449 0.0582455 10.9063C0.0963447 10.9677 0.150849 11.0172 0.215601 11.0492L4.08231 12.9689C4.13585 12.9954 4.19482 13.0092 4.25459 13.0092C4.31437 13.0092 4.37333 12.9954 4.42688 12.9689L8.29594 11.048C8.36061 11.016 8.41504 10.9664 8.45307 10.9051C8.49109 10.8437 8.51121 10.7729 8.51114 10.7007V6.96181C8.51123 6.88966 8.49111 6.81893 8.45308 6.75762C8.41505 6.69631 8.36061 6.64687 8.29594 6.61489Z" fill="#00253E"/>
<path d="M4.25479 0.322889C4.2662 0.322747 4.27748 0.325299 4.28772 0.330337L8.15521 2.24801C8.16761 2.25416 8.17804 2.26367 8.18531 2.27545C8.19259 2.28723 8.19642 2.30081 8.19637 2.31465V5.73173L7.66913 5.47027C7.643 5.45729 7.62102 5.43727 7.60564 5.41248C7.59027 5.38769 7.58212 5.3591 7.5821 5.32993V3.13198C7.58252 2.98677 7.54213 2.84437 7.46555 2.721C7.38896 2.59763 7.27926 2.49826 7.14894 2.43421L4.60053 1.16961C4.49299 1.11637 4.3746 1.08867 4.25459 1.08867C4.13459 1.08867 4.0162 1.11637 3.90865 1.16961L1.35789 2.43421C1.22794 2.49853 1.11864 2.59802 1.04241 2.72137C0.966187 2.84472 0.926094 2.98698 0.926693 3.13198V5.23742C0.926076 5.38237 0.966166 5.52458 1.0424 5.64787C1.11863 5.77116 1.22794 5.87057 1.35789 5.93479L3.90591 7.1986C4.01344 7.2526 4.13211 7.28072 4.25244 7.28072C4.37277 7.28072 4.49143 7.2526 4.59897 7.1986L4.74009 7.12883C4.76177 7.11805 4.78565 7.11245 4.80986 7.11245C4.83407 7.11245 4.85796 7.11805 4.87964 7.12883L5.49861 7.43694L4.28576 8.03827C4.27555 8.04343 4.26427 8.04612 4.25283 8.04611C4.2414 8.04603 4.23014 8.04335 4.2199 8.03827L0.351626 6.11981C0.339712 6.11355 0.329751 6.10413 0.322837 6.09258C0.315922 6.08104 0.31232 6.06781 0.312426 6.05435V2.31465C0.312147 2.301 0.315664 2.28754 0.322585 2.27578C0.329507 2.26401 0.339561 2.2544 0.351626 2.24801L4.22029 0.329945C4.23019 0.32518 4.24106 0.322765 4.25205 0.322889M4.25205 0.00928771C4.19242 0.0088502 4.13351 0.0222696 4.07996 0.0484879L0.215209 1.96734C0.150531 1.99942 0.0961065 2.04894 0.0580792 2.11031C0.0200518 2.17168 -6.46319e-05 2.24245 2.53568e-07 2.31465V6.05474C-8.23755e-05 6.12689 0.0200311 6.19762 0.0580645 6.25893C0.096098 6.32024 0.150533 6.36969 0.215209 6.40166L4.0827 8.31973C4.13625 8.34629 4.19521 8.36011 4.25498 8.36011C4.31476 8.36011 4.37372 8.34629 4.42727 8.31973L6.20578 7.43772L5.02115 6.84972C4.95616 6.81746 4.88458 6.80068 4.81202 6.80068C4.73946 6.80068 4.66788 6.81746 4.60289 6.84972L4.46177 6.91989C4.39759 6.9521 4.32679 6.96887 4.25498 6.96887C4.18318 6.96887 4.11238 6.9521 4.0482 6.91989L1.50019 5.65568C1.42208 5.61726 1.35632 5.55769 1.31038 5.48375C1.26443 5.40981 1.24015 5.32447 1.24029 5.23742V3.13198C1.2403 3.04536 1.26449 2.96046 1.31013 2.88684C1.35576 2.81322 1.42105 2.75381 1.49862 2.71528L4.04664 1.45068C4.11088 1.41871 4.18166 1.40207 4.25342 1.40207C4.32517 1.40207 4.39596 1.41871 4.4602 1.45068L7.00821 2.71528C7.08583 2.75379 7.15117 2.81319 7.19687 2.88681C7.24258 2.96042 7.26684 3.04533 7.26693 3.13198V5.32993C7.26698 5.41744 7.29144 5.50321 7.33756 5.57759C7.38368 5.65196 7.44963 5.712 7.528 5.75094L8.50801 6.23781V2.31465C8.50804 2.24241 8.48786 2.17161 8.44976 2.11023C8.41166 2.04886 8.35716 1.99936 8.29241 1.96734L4.42727 0.0496639C4.37357 0.0234541 4.31454 0.0100368 4.25479 0.0104637L4.25205 0.00928771Z" fill="black"/>
</svg>
