<svg width="241" height="250" viewBox="0 0 241 250" fill="none" xmlns="http://www.w3.org/2000/svg">
<g clip-path="url(#clip0_15020_84886)">
<path d="M119.44 19.3067C62.0717 18.6808 52.717 48.1359 52.717 96.0087C52.717 143.882 83.2878 182.686 121 182.686C158.712 182.686 189.283 143.878 189.283 96.0087C189.283 48.1391 179.304 19.9571 119.44 19.3067Z" fill="#232B2B"/>
<path d="M188.146 116.135C188.742 116.182 189.183 116.403 189.533 116.897C189.921 117.445 190.255 118.411 190.363 120.061C190.578 123.361 189.867 128.904 187.687 137.858C185.737 145.867 184.224 153.171 182.251 158.518C181.267 161.185 180.202 163.264 178.982 164.663C177.786 166.034 176.48 166.714 174.939 166.714C171.774 166.714 168.593 163.903 166.146 158.619C163.737 153.419 162.22 146.163 162.22 138.095C162.22 130.016 163.897 125.58 166.267 123.146C168.62 120.729 171.864 120.074 175.564 120.074C176.679 120.074 177.857 119.767 178.994 119.362C180.137 118.956 181.321 118.42 182.443 117.916C183.583 117.403 184.66 116.923 185.658 116.585C186.667 116.243 187.495 116.083 188.146 116.135Z" fill="white" stroke="black" stroke-width="2"/>
<path d="M52.8528 116.135C53.5038 116.083 54.3316 116.243 55.3401 116.585C56.338 116.923 57.4143 117.403 58.5549 117.916C59.6768 118.42 60.8608 118.956 62.0042 119.362C63.1417 119.767 64.3192 120.074 65.4348 120.074C69.1341 120.074 72.3797 120.73 74.7346 123.147C77.1055 125.582 78.7834 130.017 78.7834 138.095C78.7834 146.162 77.2658 153.417 74.8557 158.618C72.4068 163.903 69.2243 166.714 66.0588 166.714C64.5174 166.714 63.2122 166.034 62.0168 164.663C60.7964 163.264 59.7315 161.185 58.7473 158.518C56.7748 153.171 55.2617 145.866 53.3118 137.858C51.1315 128.904 50.4201 123.361 50.636 120.061C50.7439 118.411 51.0773 117.445 51.4651 116.897C51.8153 116.403 52.2566 116.182 52.8528 116.135Z" fill="white" stroke="black" stroke-width="2"/>
<path d="M120.064 71.6806C52.0944 70.4322 62.0684 98.4898 62.0684 144.639C62.0684 190.788 104.471 228.823 120.372 228.193C138.143 227.496 178.678 190.782 178.678 144.639C178.678 98.4964 186.165 72.9012 120.064 71.6806Z" fill="white"/>
<path d="M82.675 77.0029C91.1273 73.8895 103.104 72.3695 120.049 72.6807C153.07 73.2904 167.164 79.9976 173.274 91.7725C176.365 97.73 177.489 105.111 177.819 113.979C178.149 122.869 177.681 133.03 177.681 144.639C177.681 167.422 167.671 187.921 155.419 202.828C149.296 210.278 142.634 216.307 136.422 220.508C130.18 224.729 124.503 227.032 120.337 227.193H120.336C116.694 227.336 111.289 225.233 105.117 221.061C98.9941 216.921 92.2715 210.851 86.0305 203.315C73.5403 188.235 63.0715 167.408 63.0715 144.639C63.0715 138.855 62.9156 133.356 62.7756 128.178C62.6355 122.994 62.5114 118.138 62.5745 113.611C62.7008 104.539 63.5787 96.9268 66.4827 90.8174C69.3591 84.7658 74.2682 80.0996 82.675 77.0029Z" fill="white" stroke="#232B2B" stroke-width="2"/>
<mask id="mask0_15020_84886" style="mask-type:luminance" maskUnits="userSpaceOnUse" x="61" y="71" width="118" height="158">
<path d="M82.5022 76.5342C91.04 73.3893 103.09 71.869 120.059 72.1807C153.093 72.7907 167.467 79.4954 173.717 91.542C176.86 97.6003 177.987 105.072 178.318 113.96C178.648 122.859 178.181 133.066 178.181 144.639C178.181 167.567 168.109 188.175 155.806 203.146C149.656 210.629 142.958 216.691 136.702 220.922C130.432 225.162 124.661 227.526 120.357 227.693H120.356C116.547 227.843 111.029 225.661 104.837 221.476C98.6698 217.306 91.9133 211.202 85.6458 203.635C73.1064 188.495 62.5715 167.559 62.5715 144.639C62.5715 138.863 62.4156 133.371 62.2756 128.191C62.1355 123.009 62.0113 118.143 62.0745 113.604C62.201 104.518 63.0789 96.8142 66.0315 90.6025C68.9703 84.42 73.9873 79.6707 82.5022 76.5342Z" fill="white" stroke="white"/>
</mask>
<g mask="url(#mask0_15020_84886)">
<path opacity="0.1" d="M118.732 70.2969H118.721C118.529 70.3009 118.345 70.3717 118.201 70.4971C118.056 70.6225 117.96 70.7945 117.929 70.9833L103.676 161.97C103.659 162.084 103.667 162.201 103.698 162.313C103.73 162.424 103.785 162.528 103.859 162.616C103.933 162.705 104.026 162.777 104.13 162.827C104.234 162.878 104.348 162.905 104.464 162.908L135.643 163.531H135.649C135.768 163.53 135.885 163.503 135.993 163.452C136.1 163.401 136.195 163.327 136.271 163.236C136.347 163.145 136.403 163.038 136.433 162.923C136.464 162.808 136.469 162.688 136.449 162.571L119.532 70.962C119.496 70.7757 119.397 70.6076 119.251 70.4863C119.105 70.365 118.922 70.298 118.732 70.2969ZM105.421 161.303L118.798 75.9375L134.666 161.886L105.421 161.303Z" fill="#7EC040"/>
<path opacity="0.1" d="M157.324 122.143L157.106 121.989L119.386 70.6262C119.31 70.5175 119.207 70.4303 119.087 70.3729C118.968 70.3155 118.835 70.2899 118.703 70.2985C118.571 70.3034 118.442 70.3405 118.328 70.4064C118.214 70.4724 118.118 70.5652 118.048 70.6769L86.6789 120.535C86.5979 120.665 86.5549 120.816 86.5549 120.969C86.5549 121.122 86.5979 121.272 86.6789 121.402C86.7599 121.533 86.8768 121.637 87.0157 121.703C87.1546 121.769 87.3096 121.794 87.462 121.774L87.6734 121.749L156.833 123.619H156.856C157.026 123.614 157.19 123.557 157.326 123.454C157.462 123.352 157.562 123.21 157.614 123.048C157.665 122.886 157.665 122.712 157.613 122.55C157.561 122.388 157.46 122.246 157.324 122.144V122.143ZM88.8431 120.155L118.783 72.5495L155.058 121.944L88.8431 120.155Z" fill="#7EC040"/>
<path opacity="0.1" d="M70.4005 84.4184C70.3198 84.267 70.1936 84.1447 70.0397 84.0688C69.8858 83.9929 69.712 83.9673 69.5427 83.9955C69.3735 84.0238 69.2174 84.1045 69.0964 84.2262C68.9755 84.3479 68.8958 84.5045 68.8687 84.674L62.304 134.55C62.286 134.7 62.3093 134.851 62.3714 134.987C62.4335 135.124 62.5319 135.241 62.6561 135.326C62.7802 135.41 62.9252 135.459 63.0752 135.467C63.2252 135.475 63.3744 135.441 63.5065 135.37L88.0336 121.65C88.2141 121.547 88.3484 121.379 88.4092 121.18C88.4701 120.981 88.4529 120.766 88.3612 120.579L70.4005 84.4184ZM64.1275 133.158L70.1318 87.5279L86.5657 120.607L64.1275 133.158Z" fill="#7EC040"/>
<path opacity="0.1" d="M167.76 82.9393C167.707 82.7705 167.601 82.6231 167.458 82.5188C167.315 82.4144 167.142 82.3586 166.965 82.3594C166.788 82.3642 166.617 82.4264 166.479 82.5366C166.34 82.6468 166.24 82.799 166.195 82.9705L156.069 122.608C156.042 122.712 156.036 122.821 156.052 122.928C156.067 123.035 156.104 123.137 156.16 123.229C156.216 123.322 156.29 123.402 156.377 123.465C156.464 123.529 156.564 123.574 156.669 123.599L180.363 129.212C180.502 129.242 180.646 129.237 180.781 129.195C180.917 129.154 181.04 129.078 181.137 128.975C181.234 128.872 181.303 128.745 181.337 128.608C181.371 128.47 181.369 128.326 181.33 128.189L167.76 82.9393ZM157.847 122.209L167.047 86.2094L179.369 127.308L157.847 122.209Z" fill="#7EC040"/>
<path opacity="0.1" d="M135.669 161.905L104.49 161.281C104.362 161.286 104.237 161.318 104.122 161.374C104.007 161.431 103.905 161.511 103.823 161.609C103.745 161.713 103.693 161.834 103.672 161.963C103.651 162.091 103.661 162.223 103.702 162.346L119.291 211.61C119.344 211.774 119.447 211.917 119.586 212.018C119.725 212.12 119.892 212.175 120.064 212.177C120.236 212.176 120.403 212.121 120.542 212.02C120.681 211.919 120.785 211.777 120.839 211.613L136.429 162.974C136.466 162.853 136.475 162.726 136.455 162.601C136.434 162.476 136.386 162.358 136.312 162.256C136.239 162.153 136.143 162.069 136.031 162.01C135.92 161.95 135.797 161.917 135.67 161.914L135.669 161.905ZM120.069 208.681L105.591 162.928L134.547 163.508L120.069 208.681Z" fill="#7EC040"/>
<path opacity="0.1" d="M63.7688 133.98C63.6331 133.894 63.4749 133.849 63.3138 133.852C63.1528 133.854 62.9962 133.905 62.8635 133.996C62.7308 134.087 62.628 134.215 62.5678 134.365C62.5077 134.514 62.4929 134.678 62.5253 134.836C67.6155 157.454 75.2189 191.704 75.2959 193.351C75.302 193.529 75.3585 193.702 75.4588 193.85C75.5592 193.997 75.6992 194.113 75.8627 194.185C75.9554 194.225 76.0549 194.248 76.156 194.252C76.9424 194.252 78.8723 192.627 91.348 178.454C98.2108 170.656 105.023 162.703 105.092 162.623C105.166 162.535 105.22 162.433 105.252 162.323C105.284 162.213 105.293 162.098 105.277 161.984C105.262 161.871 105.223 161.762 105.162 161.665C105.102 161.567 105.022 161.483 104.928 161.419L63.7688 133.98ZM76.7114 192.021C75.2877 184.301 66.8406 146.605 64.5552 136.462L103.262 162.266C94.2281 172.797 80.4107 188.585 76.7147 192.021H76.7114Z" fill="#7EC040"/>
<path opacity="0.1" d="M180.992 127.738C180.852 127.648 180.687 127.604 180.52 127.61C180.353 127.616 180.192 127.674 180.058 127.774L135.126 162.143C135.03 162.216 134.952 162.309 134.897 162.416C134.842 162.524 134.811 162.642 134.807 162.762C134.804 162.883 134.827 163.003 134.875 163.113C134.923 163.224 134.996 163.322 135.087 163.401L165.648 189.941C165.754 190.031 165.882 190.092 166.018 190.119C166.155 190.146 166.296 190.138 166.429 190.095C166.561 190.052 166.681 189.977 166.776 189.875C166.871 189.773 166.938 189.649 166.972 189.514L181.341 128.606C181.379 128.443 181.365 128.273 181.303 128.118C181.241 127.962 181.132 127.83 180.992 127.738ZM165.699 187.833L136.906 162.827L179.238 130.446L165.699 187.833Z" fill="#7EC040"/>
<path opacity="0.1" d="M120.353 210.234H120.34C120.127 210.236 119.924 210.321 119.773 210.47C119.621 210.619 119.534 210.821 119.529 211.034L119.126 238.78C119.126 238.994 119.21 239.2 119.359 239.353C119.509 239.506 119.713 239.595 119.927 239.599H119.938C120.152 239.599 120.358 239.516 120.511 239.366C120.664 239.217 120.752 239.014 120.757 238.8L121.159 211.054C121.159 210.839 121.074 210.632 120.924 210.479C120.773 210.326 120.568 210.238 120.353 210.234Z" fill="#7EC040"/>
</g>
<path d="M196.593 23.6409H215.952V45.4959H218.39V21.2031H196.593V23.6409Z" fill="#232B2B"/>
<path d="M197.251 2.43779H237.745V47.9875H240.183V0H197.251V2.43779Z" fill="#232B2B"/>
<path d="M22.6082 45.4959H25.0459V23.6409H44.4058V21.2031H22.6082V45.4959Z" fill="#232B2B"/>
<path d="M0.817139 47.9875H3.25493V2.43779H43.7472V0H0.817139V47.9875Z" fill="#232B2B"/>
<path d="M215.952 226.363H196.593V228.799H218.39V204.508H215.952V226.363Z" fill="#232B2B"/>
<path d="M237.745 247.565H197.251V250.003H240.183V202.016H237.745V247.565Z" fill="#232B2B"/>
<path d="M25.0459 204.508H22.6082V228.799H44.4058V226.363H25.0459V204.508Z" fill="#232B2B"/>
<path d="M3.25493 202.016H0.817139V250.003H43.7472V247.565H3.25493V202.016Z" fill="#232B2B"/>
</g>
<defs>
<clipPath id="clip0_15020_84886">
<rect width="239.366" height="250" fill="white" transform="translate(0.817139)"/>
</clipPath>
</defs>
</svg>
