<svg width="80" height="80" viewBox="0 0 80 80" fill="none" xmlns="http://www.w3.org/2000/svg">
<rect width="80" height="80" rx="40" fill="#FBEAEA"/>
<path d="M56.9997 49.3891L43.3357 25.6594C42.9942 25.078 42.5068 24.596 41.9216 24.261C41.3365 23.9261 40.6739 23.7499 39.9997 23.7499C39.3255 23.7499 38.663 23.9261 38.0778 24.261C37.4927 24.596 37.0052 25.078 36.6638 25.6594L22.9997 49.3891C22.6712 49.9514 22.498 50.5909 22.498 51.2422C22.498 51.8935 22.6712 52.533 22.9997 53.0953C23.3368 53.6802 23.8234 54.1649 24.4097 54.4996C24.9959 54.8343 25.6606 55.007 26.3357 55H53.6638C54.3383 55.0065 55.0024 54.8335 55.588 54.4988C56.1736 54.1641 56.6598 53.6797 56.9966 53.0953C57.3256 52.5333 57.4993 51.8939 57.4998 51.2426C57.5004 50.5914 57.3278 49.9517 56.9997 49.3891ZM54.8325 51.8438C54.7134 52.047 54.5424 52.2148 54.337 52.3301C54.1316 52.4455 53.8993 52.5041 53.6638 52.5H26.3357C26.1002 52.5041 25.8678 52.4455 25.6624 52.3301C25.457 52.2148 25.286 52.047 25.1669 51.8438C25.059 51.6611 25.0021 51.4528 25.0021 51.2406C25.0021 51.0285 25.059 50.8202 25.1669 50.6375L38.831 26.9078C38.9525 26.7056 39.1243 26.5383 39.3296 26.4221C39.535 26.3059 39.7669 26.2448 40.0028 26.2448C40.2388 26.2448 40.4707 26.3059 40.6761 26.4221C40.8814 26.5383 41.0532 26.7056 41.1747 26.9078L54.8388 50.6375C54.9457 50.8207 55.0016 51.0293 55.0005 51.2415C54.9994 51.4537 54.9414 51.6616 54.8325 51.8438ZM38.7497 42.5V36.25C38.7497 35.9185 38.8814 35.6005 39.1158 35.3661C39.3503 35.1317 39.6682 35 39.9997 35C40.3312 35 40.6492 35.1317 40.8836 35.3661C41.118 35.6005 41.2497 35.9185 41.2497 36.25V42.5C41.2497 42.8315 41.118 43.1495 40.8836 43.3839C40.6492 43.6183 40.3312 43.75 39.9997 43.75C39.6682 43.75 39.3503 43.6183 39.1158 43.3839C38.8814 43.1495 38.7497 42.8315 38.7497 42.5ZM41.8747 48.125C41.8747 48.4959 41.7648 48.8584 41.5587 49.1667C41.3527 49.475 41.0599 49.7154 40.7173 49.8573C40.3746 49.9992 39.9976 50.0363 39.6339 49.964C39.2702 49.8916 38.9361 49.7131 38.6739 49.4508C38.4117 49.1886 38.2331 48.8545 38.1608 48.4908C38.0884 48.1271 38.1255 47.7501 38.2674 47.4075C38.4094 47.0649 38.6497 46.772 38.958 46.566C39.2664 46.36 39.6289 46.25 39.9997 46.25C40.497 46.25 40.9739 46.4476 41.3255 46.7992C41.6772 47.1508 41.8747 47.6277 41.8747 48.125Z" fill="#D32F2F"/>
</svg>
